<?xml version="1.0" encoding="UTF-8"?>
<!DOCTYPE svg PUBLIC "-//W3C//DTD SVG 1.1//EN" "http://www.w3.org/Graphics/SVG/1.1/DTD/svg11.dtd">
<!-- Creator: CorelDRAW 2020 (64-Bit) -->
<svg xmlns="http://www.w3.org/2000/svg" xml:space="preserve" width="3.10568in" height="0.726606in" version="1.1" style="shape-rendering:geometricPrecision; text-rendering:geometricPrecision; image-rendering:optimizeQuality; fill-rule:evenodd; clip-rule:evenodd"
viewBox="0 0 3105.68 726.61"
 xmlns:xlink="http://www.w3.org/1999/xlink"
 xmlns:xodm="http://www.corel.com/coreldraw/odm/2003">
 <defs>
  <style type="text/css">
   <![CDATA[
    .fil1 {fill:#D83135}
    .fil0 {fill:#FEFEFE;fill-rule:nonzero}
   ]]>
  </style>
 </defs>
 <g id="__x0023_Layer_x0020_1">
  <metadata id="CorelCorpID_0Corel-Layer"/>
  <path class="fil0" d="M916.8 492.05l0 -112.5 70 0c30.5,0 57.5,-11 81.5,-33.5 24,-22.5 36,-50.5 36,-84.5 0,-35.5 -12.5,-64 -37,-85.5 -24.5,-21.5 -51,-32.5 -80.5,-32.5l-147 0 0 348.5 77 0zm-916.8 -104.23c16.98,-5.1 33.96,-10.05 50.97,-15.1 -27.46,49.54 -11.19,137.25 10.75,186.38 16.9,-47.78 33.97,-92.25 119.11,-115.94 -48.74,30.52 -60.58,97.52 -67.61,140.73 19.62,32.28 46.41,49.25 81.97,70.44 24.85,-69.55 39.52,-83.85 75.8,-92.7 -40.02,41.28 -34.03,86.51 -32.51,118.08 30.65,12.84 63.35,19.28 96.1,24.1 -27.52,-53.9 -25.31,-120.67 13.21,-198.37 -0.36,41.72 3.74,49.89 1.2,74.11 43.34,-62.19 34.02,-147.9 63.94,-189.01l-7.8 74.5c38.89,-45.55 40.39,-116.89 56.69,-135.12l3.59 46.18c33.12,-62.41 32.9,-100.25 95.19,-131.41l0.06 -0.03c0.44,-0.22 0.88,-0.42 1.31,-0.64 37.84,-18.33 65.15,-3.32 85.76,-46.11 0.74,-1.53 4.74,-12.44 1.39,-14.96 -1.76,-1.32 -6.48,2.5 -13.38,8.5l-5.61 4.89 -1.09 -16.15c-12.8,20.62 -16.71,21.37 -38.57,26.31 -22.57,5.13 -55.11,10.96 -52.02,-1.27 5.21,-20.64 43.84,-46.27 87.04,-57.91 2.35,0.1 4.53,0.2 5.77,0.22 4.72,0.09 4.53,9.2 5.02,14.17 2.8,-4.98 6.87,-14.59 10.08,-15.05 3.63,-0.53 5.71,-1.06 7.17,-1.78 1.24,-0.62 2.38,-1.64 3.94,-3.11 1.56,-2.56 3,-9.35 3.88,-16.42 0.94,-7.65 1.17,-15.2 0.15,-17.76l-0.39 -0.98 0.08 -1.04 0.15 -1.99c0.76,-9.67 1.29,-16.39 0.14,-19.61 -0.98,-2.76 -5.91,-1.98 -18.87,2.64l-0.84 0.3 -0.91 -0.05c-21.61,-1.19 -42.41,-2.45 -64.2,-0.67 -18.07,1.48 -36.17,4.89 -51.81,11.56 -7.44,3.18 -16.29,-0.95 -27.27,-6.07 -11.3,-5.26 -25.19,-11.73 -40.38,-11.22 -25.45,0.86 -43.35,5.75 -62.15,10.88 -21.33,5.82 -43.8,11.96 -79.48,13.16 -16.88,0.57 -36.01,1.35 -52.32,2.66 -13.65,1.1 -25.56,2.57 -32.85,4.6 1.81,2.16 6.16,5.55 12.02,9.59 11.04,7.61 26.98,16.2 42.72,23.42l8.3 3.8 -8.05 4.29c-91.27,26.02 -269.52,142.72 -285.38,234.96zm425.11 -256.17c13.3,-6.51 30.34,-17.76 42.58,-21.51 9.24,-2.82 15.25,7.96 21.1,11.74 -23.47,-4.75 -63.67,11.53 -63.68,9.76l0 0zm1423.06 6.4c-52.5,0 -96.5,17 -133,51.5 -36.5,34.5 -54.5,77 -54.5,128.5 0,51.5 18,94 54.5,128.5 36.5,34 80.5,51 133,51 60.5,0 115.5,-27.5 148,-71l0 -141 -163.5 0 0 68 91.5 0 0 47c-20,18 -45.5,27 -76,27 -31.5,0 -57.5,-10.5 -79,-31 -21,-21 -31.5,-47 -31.5,-78.5 0,-31.5 10.5,-57.5 32,-78.5 21.5,-21 47.5,-31.5 78.5,-31.5 34,0 61.5,10.5 83,32l52 -45.5c-36.5,-37.5 -81.5,-56.5 -135,-56.5zm269.5 354l0 -123c0,-41.5 25,-65.5 67.5,-65.5 9,0 17.5,1 25,2.5l0 -70c-8,-1 -14.5,-1.5 -19.5,-1.5 -34.5,0 -61.5,14.5 -73,40l0 -34.5 -74.5 0 0 252 74.5 0zm246.5 -259.5c-39,0 -72,13 -99.5,39 -27,25.5 -40.5,57 -40.5,94.5 0,37.5 13.5,69 40.5,95 27.5,25.5 60.5,38.5 99.5,38.5 38.5,0 71.5,-13 99,-38.5 27.5,-26 41,-57.5 41,-95 0,-37.5 -13.5,-69 -41,-94.5 -27.5,-26 -60.5,-39 -99,-39zm-65.5 133.5c0,-18.5 6.5,-34 19,-46.5 12.5,-13 28,-19.5 46.5,-19.5 18.5,0 34,6.5 46.5,19.5 12.5,12.5 19,28 19,46.5 0,18.5 -6.5,34 -19,47 -12.5,12.5 -28,19 -46.5,19 -18.5,0 -34,-6.5 -46.5,-19 -12.5,-12.5 -19,-28.5 -19,-47zm242 24.5c0,35 11.5,62 34.5,80.5 23.5,18.5 52.5,28 87,28 34.5,0 63.5,-9.5 86.5,-28 23.5,-18.5 35,-45.5 35,-80.5l0 -150.5 -75.5 0 0 144c0,32 -18.5,46.5 -46,46.5 -27.5,0 -46,-14.5 -46,-46.5l0 -144 -75.5 0 0 150.5zm365 198l0 -129.5c7.5,22 37,37.5 75,37.5 35.5,0 65.5,-12.5 89,-37.5 24,-25.5 36,-56.5 36,-93 0,-36.5 -12,-67.5 -36,-92.5 -23.5,-25.5 -53.5,-38 -89,-38 -38,0 -67.5,15.5 -75,37.5l0 -33 -74.5 0 0 348.5 74.5 0zm61.5 -159.5c-18.5,0 -34,-6 -47,-18 -12.5,-12.5 -19,-27.5 -19,-45 0,-17.5 6.5,-32.5 19,-44.5 13,-12.5 28.5,-18.5 47,-18.5 18,0 33,6 45.5,18.5 12.5,12 18.5,27 18.5,44.5 0,17.5 -6,32.5 -18.5,45 -12.5,12 -27.5,18 -45.5,18zm-2050.38 -215.5l65.5 0c10.5,0 21,4 30.5,11.5 9.5,7.5 14.5,19.5 14.5,36.5 0,17 -5,29.5 -14.5,37 -9.5,7.5 -20,11 -30.5,11l-65.5 0 0 -96zm204.5 207c23.5,45.5 72.5,77 143,77 85.5,0 129.5,-42 129.5,-106.5 0,-50 -25.5,-79.5 -89,-103.5 -8.5,-3.5 -18.5,-7 -30,-11l-25 -8.5c-4.5,-2 -10,-4.5 -15.5,-7.5 -10.5,-6.5 -13.5,-13.5 -13.5,-25 0,-16.5 16.5,-28.5 42,-28.5 27.5,0 48.5,9 62.5,27l51.5 -39c-27,-38 -65.5,-57 -116,-57 -32.5,0 -60,9 -82.5,27 -22.5,17.5 -33.5,41.5 -33.5,71.5 0,52.5 30,81 84.5,101 10,4 30,10.5 38.5,14 9.5,2.5 23.5,8.5 30,13 11.5,7 19,16 19,29 0,18.5 -16.5,34.5 -52,34.5 -40,0 -69,-15.5 -87.5,-46l-56 38.5zm399 71.5l0 -348.5 -77 0 0 348.5 77 0z"/>
  <path class="fil1" d="M647.65 0c-204.25,0 -379.21,0 -583.46,0l0 224.54c12.07,-11.31 25.24,-21.47 39.29,-30.24 3.21,-2.11 6.46,-4.15 9.75,-6.12l0 -130.67c170.79,0 216.92,0 534.97,0 -0.33,-19.35 -0.54,-37.44 -0.54,-57.5zm-47.28 256.15c-3.21,160.88 -34.41,297.07 -215.99,391.82 -28.46,78.63 0,0 -28.46,78.63 257.35,-119.09 294,-276.73 295.35,-483.4 -14.35,3.86 -35.33,10.46 -50.89,12.94z"/>
 </g>
</svg>
